<?xml version="1.0" encoding="utf-8"?>
<!-- Generator: Adobe Illustrator 16.0.4, SVG Export Plug-In . SVG Version: 6.00 Build 0)  -->
<!DOCTYPE svg PUBLIC "-//W3C//DTD SVG 1.1//EN" "http://www.w3.org/Graphics/SVG/1.1/DTD/svg11.dtd">
<svg version="1.1" id="Layer_1" xmlns="http://www.w3.org/2000/svg" xmlns:xlink="http://www.w3.org/1999/xlink" x="0px" y="0px"
	 width="158.351px" height="156.751px" viewBox="0 0 158.351 156.751" enable-background="new 0 0 158.351 156.751"
	 xml:space="preserve">
<path fill="#D52001" d="M79.175,2.697l-3.302,69.108c0.977-0.55,2.102-0.867,3.302-0.867V2.697z"/>
<path fill="#3772AC" d="M75.872,83.568l3.302,69.119l0-0.01V84.435C77.974,84.435,76.849,84.118,75.872,83.568z"/>
<path fill="#A51400" d="M82.477,71.806L79.175,2.687l0,0.01v68.242C80.375,70.939,81.5,71.256,82.477,71.806z"/>
<path fill="#1D3E60" d="M79.175,84.435v68.242l3.302-69.108C81.5,84.118,80.375,84.435,79.175,84.435z"/>
<path fill="none" d="M75.404,77.687c0,2.083,1.688,3.771,3.77,3.771c0,0,0,0,0.001,0v-7.541c0,0,0,0-0.001,0
	C77.092,73.917,75.404,75.604,75.404,77.687z"/>
<path fill="none" d="M82.945,77.687c0-2.082-1.688-3.77-3.77-3.77c0,0,0,0-0.001,0c-2.082,0-3.77,1.688-3.77,3.77
	c0,0.022,0.006,0.042,0.006,0.064h7.528C82.939,77.729,82.945,77.708,82.945,77.687z"/>
<path fill="#D52001" d="M75.404,77.687c0-2.082,1.688-3.77,3.77-3.77c0,0,0,0,0.001,0v-2.978c-3.762,0-6.812,3.05-6.812,6.812h3.047
	C75.411,77.729,75.404,77.708,75.404,77.687z"/>
<path fill="#A51400" d="M82.945,77.687c0,0.022-0.006,0.042-0.006,0.064h3.048c0-3.762-3.05-6.812-6.812-6.812v2.978
	C81.257,73.917,82.945,75.605,82.945,77.687z"/>
<path fill="#3772AC" d="M79.175,84.562v-3.105c0,0,0,0-0.001,0c-2.06,0-3.729-1.654-3.764-3.706h-3.047
	C72.363,81.513,75.413,84.562,79.175,84.562z"/>
<path fill="#1D3E60" d="M79.175,81.457v3.105c3.762,0,6.812-3.05,6.812-6.812h-3.048C82.903,79.803,81.235,81.457,79.175,81.457z"/>
<circle cx="79.174" cy="77.687" r="3.661"/>
</svg>
