<?xml version="1.0" encoding="utf-8"?>
<!-- Generator: Adobe Illustrator 16.0.4, SVG Export Plug-In . SVG Version: 6.00 Build 0)  -->
<!DOCTYPE svg PUBLIC "-//W3C//DTD SVG 1.1//EN" "http://www.w3.org/Graphics/SVG/1.1/DTD/svg11.dtd">
<svg version="1.1" id="Layer_1" xmlns="http://www.w3.org/2000/svg" xmlns:xlink="http://www.w3.org/1999/xlink" x="0px" y="0px"
	 width="39.312px" height="19.812px" viewBox="0 0 39.312 19.812" enable-background="new 0 0 39.312 19.812" xml:space="preserve">
<g>
	<path d="M0.742,9.912C0.741,9.88,0.741,9.943,0.742,9.912L0.742,9.912z"/>
	<path d="M1.155,14.811c0.014,0.155,0.026,0.305,0.039,0.447c-0.02,0.001-0.037,0.002-0.058,0.003
		c0.068,0.448,0.133,0.896,0.198,1.34c0.001,0.002,0.001,0.006,0.001,0.008c0.001,0.002,0.001,0.003,0.001,0.004
		c0.054,0.363,0.11,0.726,0.172,1.087c0.096,0.556,0.362,0.809,0.922,0.869c0.145,0.017,0.289,0.031,0.435,0.047l0,0h0.001
		c0.536,0.054,1.073,0.099,1.61,0.114c0.773,0.022,1.549-0.005,2.323-0.02c0.038-0.001,0.077-0.001,0.115-0.002l1.312,0.029
		c0,0,11.386-0.201,18.3-0.372c-0.1,0.225-0.195,0.451-0.287,0.681c-0.049,0.122-0.072,0.253-0.107,0.38
		c0.138-0.053,0.274-0.105,0.41-0.158c0.007-0.003,0.013-0.011,0.019-0.017c0.264-0.302,0.527-0.604,0.789-0.907
		c1.187-0.031,2.203-0.06,2.955-0.087c0.032,0.02,0.064,0.032,0.095,0.033c0.481,0.011,0.968-0.014,1.448-0.055
		c0.261-0.021,0.517-0.103,0.774-0.157c0.018-0.004,0.033-0.01,0.05-0.014c0.817-0.158,0.886-0.396,1.867-0.739
		c0.191-0.061,0.378-0.12,0.558-0.181c0.03-0.009,0.061-0.019,0.09-0.028c0.799-0.267,1.449-0.509,1.754-0.613
		c0.4-0.139,1.22-3.282,1.223-3.312c0.348-2.049,0.348-4.513,0-6.562c-0.009-0.074-0.802-3.148-1.244-3.319
		c-0.727-0.249-3.426-1.278-5.418-1.553c-0.011-0.001-0.023-0.003-0.042-0.005c-0.354-0.047-0.685-0.07-0.978-0.06
		c-0.723-0.033-1.778-0.075-3.05-0.121c-0.288-0.335-0.579-0.669-0.871-1.002c-0.007-0.007-0.012-0.015-0.019-0.017
		c-0.137-0.054-0.272-0.106-0.41-0.158c0.035,0.127,0.059,0.258,0.107,0.38c0.104,0.259,0.213,0.514,0.325,0.768
		C20.549,1.337,10.823,1.078,7.597,1.085c0,0-0.074,0.013-0.208,0.037C7.194,1.12,6.997,1.118,6.801,1.113
		c-0.774-0.015-1.55-0.042-2.323-0.02c-0.684,0.02-1.365,0.086-2.046,0.16c-0.56,0.062-0.826,0.313-0.922,0.87
		C1.448,2.49,1.39,2.856,1.336,3.223c0,0.001,0,0.001,0,0.001C1.294,3.491,1.233,3.911,1.164,4.393
		C1.156,4.45,1.148,4.506,1.138,4.562c0.001,0,0.001,0,0.001,0c-0.02,0.141-0.04,0.285-0.061,0.432
		c-0.39,0.513-0.441,1.823-0.415,3.005C0.66,8.026,0.658,8.042,0.658,8.042s0.004,0.06,0.011,0.169
		C0.69,8.918,0.734,9.555,0.742,9.912C0.724,10.663,0.513,13.944,1.155,14.811z M37.127,13.195
		c-0.009,0.012-0.021,0.022-0.032,0.032c0-0.001,0-0.001,0-0.002C37.107,13.216,37.119,13.206,37.127,13.195z"/>
</g>
<path fill="#7F1F21" d="M1.739,2.112c0.095-0.555,0.36-0.808,0.921-0.868c0.679-0.075,1.362-0.142,2.045-0.161
	c0.774-0.022,1.55,0.005,2.324,0.02C7.844,1.119,8.661,1.11,9.471,1.175c2.517,0.2,5.029,0.427,7.542,0.653
	c0.109,0.01,0.21,0.101,0.304,0.148c0.032-0.151,0.132-0.172,0.542-0.062c0.022,0.24,0.034,0.264,0.217,0.272
	c0.072,0.003,0.146-0.042,0.219-0.064c-0.028-0.07-0.057-0.141-0.083-0.206c2.831,0.336,5.716,0.539,8.623,0.394
	c-0.047,0.056-0.098,0.088-0.153,0.093c-0.983,0.096-1.967,0.196-2.95,0.276c-0.368,0.029-0.74,0.017-1.11,0.007
	c-0.427-0.012-0.854-0.058-1.281-0.062c-0.502-0.004-1.005,0.019-1.507,0.033c-0.182,0.005-0.335-0.027-0.392-0.235
	c-0.011-0.035-0.064-0.076-0.103-0.081c-0.31-0.037-0.62-0.067-0.931-0.099c-0.027,0.116-0.048,0.209-0.07,0.308
	c-0.329-0.023-0.694,0.256-0.938-0.179c0.009,0.066,0.018,0.135,0.029,0.221c-0.734,0-1.452-0.021-2.169,0.007
	c-0.424,0.017-0.853,0.073-1.265,0.172c-0.237,0.057-0.443,0.164-0.653-0.035c-0.172,0.115-0.217-0.122-0.342-0.125
	c-0.241-0.007-0.481-0.002-0.724-0.002c-0.011,0.039-0.021,0.077-0.03,0.116c0.33,0.018,0.526,0.326,0.875,0.31
	c0.076-0.005,0.172,0.019,0.228,0.065c0.182,0.152,0.346,0.323,0.518,0.485c0.252,0.236,0.5,0.478,0.76,0.706
	c0.165,0.146,0.35,0.271,0.524,0.404c-0.322,0.022-0.627,0.019-0.928-0.023c-1.41-0.198-2.82-0.398-4.229-0.614
	C9.441,3.973,9.03,3.653,8.733,3.184c-0.257-0.402-0.512-0.808-0.771-1.21C7.891,1.865,7.805,1.763,7.727,1.66
	c-0.03,0.081-0.022,0.136-0.001,0.186c0.337,0.79,0.735,1.548,1.247,2.24c0.276,0.373,0.648,0.578,1.114,0.602
	c0.716,0.036,1.433,0.079,2.148,0.106c1.804,0.066,3.607,0.128,5.412,0.189c0.22,0.009,0.209,0.16,0.226,0.368
	c-5.496-0.266-10.975-0.532-16.507-0.8C1.49,3.733,1.599,2.921,1.739,2.112z"/>
<path fill="#7F1F21" d="M18.092,4.955c0.907,0.021,1.814,0.036,2.721,0.065c0.896,0.03,1.781-0.021,2.637-0.312
	c1.27-0.436,2.536-0.883,3.807-1.313c0.709-0.24,1.428-0.456,2.165-0.689c-0.232-0.062-0.452-0.121-0.67-0.18
	c0.006-0.02,0.011-0.041,0.018-0.062c0.095,0.019,0.188,0.04,0.283,0.058c0.128,0.024,0.262,0.082,0.384,0.063
	c0.344-0.053,0.373-0.038,0.363,0.322c-0.12,0.045-0.241,0.095-0.365,0.137c-1.604,0.55-3.201,1.115-4.813,1.64
	c-0.779,0.254-1.574,0.561-2.378,0.619c-1.354,0.099-2.718,0.019-4.078,0.016c-0.269,0-0.225-0.168-0.197-0.347
	C18.013,4.965,18.053,4.953,18.092,4.955z"/>
<path fill="#7F1F21" d="M27.34,2.074c-0.094-0.06-0.189-0.116-0.282-0.179c-0.059-0.04-0.139-0.076-0.164-0.134
	c-0.15-0.329-0.29-0.661-0.426-0.996c-0.048-0.122-0.071-0.253-0.106-0.38c0.137,0.053,0.273,0.105,0.41,0.158
	c0.007,0.003,0.013,0.011,0.018,0.017c0.378,0.434,0.759,0.865,1.13,1.303c0.04,0.048,0.019,0.146,0.022,0.199
	c0.343,0.112,0.398,0.484,0.632,0.708c-0.217,0.044-0.419,0.067-0.621,0.063c-0.066-0.001-0.168-0.06-0.189-0.116
	c-0.062-0.166-0.094-0.344-0.119-0.45C27.504,2.178,27.423,2.126,27.34,2.074z"/>
<path fill="#7F1F21" d="M1.738,17.69c0.095,0.557,0.36,0.809,0.921,0.87c0.679,0.074,1.362,0.141,2.045,0.16
	c0.774,0.022,1.55-0.005,2.324-0.02c0.814-0.017,1.632-0.009,2.442-0.072c2.517-0.199,5.029-0.427,7.542-0.653
	c0.108-0.009,0.209-0.1,0.305-0.147c0.032,0.151,0.132,0.172,0.542,0.062c0.022-0.241,0.034-0.264,0.217-0.272
	c0.072-0.003,0.146,0.042,0.219,0.064c-0.028,0.07-0.057,0.14-0.083,0.206c2.831-0.336,5.716-0.539,8.623-0.394
	c-0.047-0.056-0.098-0.088-0.153-0.094c-0.983-0.095-1.967-0.195-2.95-0.275c-0.368-0.029-0.74-0.018-1.11-0.007
	c-0.427,0.012-0.854,0.058-1.281,0.062c-0.502,0.005-1.005-0.019-1.507-0.033c-0.182-0.005-0.335,0.027-0.392,0.235
	c-0.011,0.035-0.064,0.076-0.103,0.081c-0.31,0.037-0.62,0.066-0.931,0.099c-0.027-0.117-0.048-0.209-0.07-0.308
	c-0.329,0.022-0.694-0.256-0.938,0.179c0.009-0.066,0.018-0.135,0.029-0.221c-0.734,0-1.452,0.02-2.169-0.007
	c-0.424-0.017-0.853-0.073-1.265-0.172c-0.237-0.057-0.443-0.164-0.653,0.034c-0.172-0.114-0.217,0.122-0.342,0.125
	c-0.241,0.008-0.481,0.002-0.724,0.002c-0.011-0.038-0.021-0.076-0.03-0.115c0.33-0.018,0.526-0.326,0.875-0.31
	c0.076,0.004,0.172-0.019,0.228-0.065c0.182-0.152,0.346-0.323,0.518-0.485c0.252-0.237,0.5-0.478,0.76-0.706
	c0.165-0.146,0.35-0.271,0.524-0.405c-0.322-0.022-0.627-0.018-0.928,0.024c-1.41,0.198-2.82,0.397-4.229,0.614
	C9.441,15.831,9.03,16.15,8.733,16.62c-0.257,0.402-0.512,0.808-0.771,1.21c-0.071,0.109-0.157,0.211-0.235,0.315
	c-0.03-0.081-0.022-0.136-0.001-0.186c0.337-0.79,0.735-1.547,1.247-2.24c0.276-0.373,0.648-0.578,1.114-0.602
	c0.716-0.036,1.433-0.079,2.148-0.106c1.804-0.068,3.607-0.129,5.412-0.191c0.22-0.008,0.209-0.159,0.226-0.367
	c-5.496,0.266-10.975,0.531-16.507,0.8C1.49,16.07,1.599,16.884,1.738,17.69z"/>
<path fill="#7F1F21" d="M18.092,14.85c0.907-0.021,1.814-0.036,2.721-0.065c0.896-0.031,1.781,0.02,2.637,0.312
	c1.27,0.435,2.536,0.882,3.807,1.313c0.709,0.238,1.428,0.455,2.165,0.688c-0.232,0.062-0.452,0.121-0.67,0.179
	c0.006,0.021,0.011,0.041,0.018,0.062c0.095-0.02,0.188-0.04,0.283-0.058c0.128-0.024,0.262-0.082,0.384-0.063
	c0.344,0.053,0.373,0.038,0.363-0.322c-0.12-0.045-0.241-0.095-0.365-0.137c-1.604-0.55-3.201-1.115-4.813-1.64
	c-0.779-0.254-1.574-0.561-2.378-0.619c-1.354-0.1-2.718-0.02-4.078-0.017c-0.269,0-0.225,0.168-0.197,0.348
	C18.013,14.84,18.053,14.851,18.092,14.85z"/>
<path fill="#7F1F21" d="M27.34,17.731c-0.094,0.06-0.189,0.116-0.282,0.179c-0.059,0.039-0.139,0.075-0.164,0.134
	c-0.15,0.329-0.29,0.662-0.426,0.996c-0.048,0.122-0.071,0.253-0.106,0.38c0.137-0.053,0.273-0.105,0.41-0.158
	c0.007-0.003,0.013-0.011,0.018-0.017c0.378-0.434,0.759-0.864,1.13-1.304c0.04-0.047,0.019-0.146,0.022-0.198
	c0.343-0.112,0.398-0.484,0.632-0.708c-0.217-0.044-0.419-0.067-0.621-0.063c-0.066,0.001-0.168,0.059-0.189,0.116
	c-0.062,0.166-0.094,0.344-0.119,0.45C27.504,17.626,27.423,17.678,27.34,17.731z"/>
<g>
	<path fill="#7F1F21" d="M0.97,9.901c-0.019,0.872-0.301,5.162,0.795,5.114c2.158-0.095,4.312-0.22,6.469-0.324
		c3.855-0.186,7.724-0.435,11.585-0.46c0.441-0.003,3.529,0.298,3.627,0.029c0.498-1.386,0.332-2.918,0.299-4.359
		c0.012-0.529,0.267-4.68-0.579-4.513c-1.438,0.286-2.952,0.202-4.41,0.168C15.248,5.473,11.739,5.28,8.234,5.112
		C7.12,5.059,2.223,4.245,1.427,4.856C0.622,5.475,0.948,8.87,0.97,9.901C0.97,9.934,0.97,9.871,0.97,9.901z"/>
	<path fill="#7F1F21" d="M32.054,6.102c0.32,2.377,0.32,5.223,0,7.599c0.82,0.031,4.835,0.033,5.303-0.516
		c-0.483,0.568-3.627,0.688-4.278,0.708c-1.479,0.045-2.769,2.487-3.512,3.757c0.806,1.42,6.496-0.773,7.603-1.155
		c0.401-0.14,1.22-3.282,1.224-3.312c0.348-2.049,0.348-4.514,0-6.562c-0.01-0.075-0.803-3.149-1.244-3.319
		c-1.107-0.379-6.778-2.566-7.582-1.148c0.743,1.271,2.032,3.714,3.512,3.758c1.402,0.042,2.812,0.419,4.196,0.644
		C36.12,6.83,33.606,6.042,32.054,6.102z M36.754,5.744c-0.043,0.357,0.11,0.584,0.46,0.679c-0.959-0.103-3.851-1.965-2.343-3.304
		c0.441,0.135,0.838,0.35,1.192,0.646c-0.575-0.226-0.8-0.107-0.674,0.354C35.839,4.764,36.383,4.054,36.754,5.744
		C36.818,6.034,36.638,5.221,36.754,5.744z M35.75,13.569c0.488-0.062,0.977-0.125,1.463-0.188
		c-0.638,0.049-0.734,1.802-0.844,2.235c-0.104,0.406-0.808-0.179-0.98,0.068c-0.126,0.462,0.099,0.581,0.674,0.354
		c-0.354,0.296-0.751,0.511-1.192,0.646C34.636,16.477,35.193,13.625,35.75,13.569C36.232,13.522,35.507,13.594,35.75,13.569z"/>
	<path fill="#7F1F21" d="M32.041,6.017l0.014,0.085C32.052,6.075,32.047,6.046,32.041,6.017z"/>
	<path fill="#7F1F21" d="M32.041,13.787c0.006-0.028,0.011-0.058,0.014-0.086L32.041,13.787z"/>
</g>
<path fill="#AA6152" d="M9.426,13.65c0.367-0.034,0.732,0.025,1.105-0.104c0.291-0.102,0.636-0.046,0.957-0.06
	c1.171-0.049,2.343-0.104,3.514-0.141c0.451-0.014,0.707-0.182,0.818-0.625c0.065-0.263,0.116-0.53,0.184-0.792
	c0.024-0.091,0.067-0.19,0.13-0.256c0.278-0.291,0.571-0.568,0.848-0.86c0.045-0.049,0.029-0.152,0.05-0.229
	c0.032-0.123,0.037-0.315,0.114-0.354c0.237-0.118,0.5-0.194,0.76-0.246c0.073-0.014,0.174,0.115,0.262,0.178
	c0.021,0.014,0.042,0.033,0.064,0.034c0.42,0.02,0.859,0.156,1.219-0.21c0.052-0.053,0.143-0.065,0.216-0.1
	c0.39-0.178,0.765-0.323,1.228-0.307c0.348,0.013,0.703-0.229,1.057-0.358c0.124,0.363,0.125,0.357,0.553,0.447
	c0.214,0.046,0.426,0.108,0.632,0.185c0.074,0.028,0.159,0.107,0.181,0.181c0.07,0.241,0.156,0.49,0.164,0.738
	c0.028,1.068-0.053,2.124-0.396,3.146c-0.06,0.18-0.138,0.216-0.322,0.182c-0.552-0.101-1.105-0.234-1.662-0.248
	c-2.004-0.048-4.008-0.064-6.011-0.067c-1.54-0.003-3.079,0.034-4.619,0.047c-1.017,0.008-2.033,0.001-2.948,0.001
	C8.086,13.779,8.756,13.716,9.426,13.65z"/>
<path fill="#AA6152" d="M9.904,14.797c1.74-0.025,3.479-0.042,5.22-0.063c0.206-0.003,0.412-0.01,0.618-0.014
	c0.734-0.015,1.468-0.032,2.201-0.04c0.055-0.001,0.163,0.077,0.158,0.095c-0.021,0.078-0.06,0.188-0.118,0.208
	c-0.104,0.034-0.227,0.015-0.342,0.013c-0.986-0.016-1.975-0.044-2.963-0.044c-0.937-0.002-1.871,0.104-2.812-0.015
	c-0.473-0.059-0.963,0.017-1.445,0.019c-0.555,0.003-1.006,0.227-1.298,0.686c-0.442,0.694-0.854,1.406-1.256,2.124
	c-0.178,0.317-0.079,0.457,0.294,0.456c0.512-0.001,1.023-0.017,1.534-0.04c2.472-0.113,4.943-0.23,7.415-0.346
	c0.094-0.004,0.188,0,0.299,0c-0.013,0.237-0.164,0.244-0.299,0.252c-0.872,0.052-1.744,0.102-2.617,0.151
	c-1.375,0.079-2.749,0.175-4.125,0.23c-0.972,0.039-1.945,0.046-2.917,0.025c-0.686-0.016-1.362-0.22-2.056-0.112
	c-0.071,0.011-0.146-0.019-0.221-0.026c-0.185-0.021-0.371-0.036-0.556-0.061c-0.116-0.017-0.229-0.047-0.344-0.071
	c0.004-0.035,0.009-0.069,0.013-0.104c0.109-0.007,0.225-0.04,0.323-0.012c0.374,0.107,0.666-0.136,0.994-0.217
	c0.055-0.014,0.108-0.123,0.122-0.195c0.033-0.187,0.057-0.365,0.311-0.365c0.031,0,0.061-0.066,0.093-0.101
	c0.075-0.079,0.152-0.156,0.228-0.235c0.055-0.058,0.111-0.111,0.163-0.173c0.172-0.202,0.341-0.409,0.514-0.611
	c0.068-0.08,0.182-0.139,0.214-0.229c0.08-0.226,0.253-0.275,0.467-0.312c0.01,0.058,0.006,0.108,0.026,0.149
	c0.023,0.051,0.067,0.09,0.102,0.134c0.019-0.056,0.062-0.115,0.052-0.164c-0.072-0.359,0.015-0.49,0.386-0.544
	c0.205-0.03,0.383-0.078,0.298-0.383C9.039,14.841,9.472,14.806,9.904,14.797z M7.524,16.746c0.049-0.016,0.085-0.074,0.127-0.115
	c-0.035-0.026-0.072-0.077-0.104-0.073c-0.054,0.006-0.104,0.046-0.2,0.093C7.439,16.703,7.491,16.756,7.524,16.746z"/>
<path fill="#AA6152" d="M32.216,14.322c-0.06,0.171-0.113,0.344-0.184,0.51c-0.062,0.148-0.059,0.227,0.125,0.289
	c0.207,0.067,0.373,0.185,0.446,0.442c0.06,0.211,0.234,0.399,0.392,0.567c0.112,0.121,0.137,0.22,0.104,0.374
	c-0.021,0.105-0.021,0.252,0.037,0.334c0.325,0.459,0.196,0.818-0.354,0.937c-0.257,0.056-0.513,0.137-0.774,0.158
	c-0.48,0.041-0.966,0.065-1.448,0.054c-0.112-0.003-0.245-0.159-0.324-0.275c-0.077-0.113-0.08-0.274-0.147-0.397
	c-0.099-0.18-0.076-0.294,0.102-0.409c0.597-0.388,1.083-0.89,1.442-1.503c0.208-0.352,0.376-0.727,0.562-1.092
	C32.203,14.315,32.21,14.319,32.216,14.322z"/>
<path fill="#AA6152" d="M9.25,10.997c-0.252,0.536-0.522,1.064-0.751,1.61c-0.088,0.213-0.209,0.301-0.417,0.304
	c-0.452,0.007-0.904,0.016-1.357,0.017c-0.159,0.001-0.319-0.017-0.521-0.028c0.258-0.518,0.49-0.986,0.725-1.455
	c0.015-0.025,0.049-0.045,0.075-0.061c0.188-0.112,0.396-0.201,0.562-0.338c0.222-0.184,0.466-0.258,0.742-0.291
	c0.356-0.042,0.71-0.113,1.14-0.185C9.361,10.761,9.306,10.879,9.25,10.997z"/>
<path fill="#AA6152" d="M11.644,10.817c-0.262,0.568-0.521,1.139-0.793,1.7c-0.036,0.073-0.141,0.146-0.223,0.157
	c-0.374,0.054-0.75,0.107-1.127,0.118c-0.288,0.008-0.579-0.046-0.935-0.079c0.329-0.634,0.618-1.203,0.924-1.763
	c0.036-0.065,0.159-0.104,0.247-0.115c0.285-0.035,0.573-0.044,0.857-0.076c0.356-0.04,0.71-0.094,1.098-0.146
	C11.671,10.713,11.667,10.769,11.644,10.817z"/>
<path fill="#AA6152" d="M11.746,11.013c0.034-0.068,0.14-0.127,0.22-0.137c0.475-0.062,0.949-0.113,1.425-0.151
	c0.057-0.004,0.178,0.101,0.172,0.143c-0.062,0.453-0.132,0.907-0.227,1.355c-0.017,0.084-0.15,0.191-0.242,0.203
	c-0.619,0.079-1.239,0.138-1.861,0.196c-0.074,0.007-0.152-0.035-0.261-0.062C11.238,12.024,11.484,11.515,11.746,11.013z"/>
<path fill="#AA6152" d="M28.563,16.601c-0.047-0.009-0.096-0.013-0.14-0.027c-0.373-0.125-0.742-0.265-1.119-0.374
	c-0.144-0.043-0.306-0.023-0.46-0.034c-0.153-0.012-0.317,0.003-0.46-0.045c-0.45-0.154-0.896-0.331-1.342-0.503
	c-1.156-0.448-2.336-0.789-3.588-0.805c-0.94-0.01-1.88-0.018-2.82-0.028c-0.12-0.002-0.267,0.021-0.266-0.17
	c0.001-0.173,0.132-0.162,0.248-0.161c1.171,0.015,2.342,0.017,3.512,0.056c0.416,0.014,0.846,0.065,1.239,0.195
	c1.22,0.403,2.425,0.853,3.635,1.287c0.524,0.188,1.047,0.382,1.57,0.573C28.57,16.578,28.566,16.59,28.563,16.601z"/>
<path fill="#AA6152" d="M2.209,10.377c0.225,0.021,0.45,0.051,0.676,0.062c0.502,0.025,1.004,0.041,1.505,0.062
	c0.127,0.005,0.259,0.012,0.257,0.191c-0.01,0.643-0.013,1.284-0.036,1.927c-0.004,0.086-0.1,0.221-0.176,0.241
	c-0.175,0.048-0.365,0.03-0.548,0.052c-0.388,0.045-0.606-0.222-0.479-0.581c0.033-0.093,0.033-0.195,0.064-0.287
	c0.039-0.113,0.067-0.257,0.151-0.321c0.252-0.194,0.243-0.425,0.164-0.686c-0.023-0.078-0.054-0.163-0.042-0.239
	c0.029-0.175-0.074-0.227-0.207-0.236c-0.205-0.016-0.411-0.008-0.617-0.021c-0.241-0.016-0.481-0.042-0.723-0.063
	C2.202,10.443,2.206,10.411,2.209,10.377z"/>
<path fill="#AA6152" d="M6.558,10.589C6.27,10.566,5.98,10.545,5.69,10.523c0.004-0.032,0.007-0.064,0.011-0.098
	c0.432,0.028,0.865,0.048,1.296,0.089c0.182,0.019,0.106,0.146,0.061,0.242c-0.325,0.694-0.651,1.388-0.978,2.081
	c-0.081,0.171-0.738,0.307-0.874,0.18c-0.011-0.011-0.021-0.024-0.03-0.039c-0.126-0.21-0.021-0.511,0.211-0.608
	c0.209-0.086,0.325-0.244,0.361-0.463s0.065-0.438,0.106-0.655c0.046-0.245,0.133-0.451,0.444-0.415
	c0.017,0.001,0.032-0.065,0.059-0.078c0.062-0.03,0.133-0.046,0.198-0.068C6.557,10.657,6.558,10.624,6.558,10.589z"/>
<path d="M1.244,14.065h1.412c0.593-0.026,1.186-0.055,1.779-0.082c0.052-0.003,0.108-0.011,0.152,0.002l0.248-0.015
	c0.041-0.015,0.092-0.018,0.146-0.02c0.205-0.008,0.408-0.016,0.613-0.022l6.911-0.258c0.417-0.018,0.833-0.034,1.25-0.047
	c0.392-0.013,0.783,0.015,1.174,0.028c0.122,0.006,0.457-0.277,0.498-0.463c0.049-0.216,0.074-0.438,0.096-0.659
	c0.171-1.851,0.21-3.702,0.048-5.557c-0.01-0.118-0.014-0.244-0.06-0.349c0.001,0,0.002,0,0.002,0
	c-0.082-0.517-0.831-0.38-1.208-0.369c-0.084,0.002-0.304,0.077-0.353,0.731c0,0.004-0.002,0.006-0.002,0.009
	c0,0.009,0,0.019,0,0.028c-0.001,0.003-0.001,0.005-0.001,0.009l0,0c-0.014,0.407-0.014,0.815-0.02,1.224
	c-0.01,0.731-0.027,1.464-0.026,2.196c0,0.049-0.005,0.088-0.014,0.123L13.885,10.9c0.015,0.04,0.02,0.091,0.015,0.152
	c-0.028,0.304-0.034,0.609-0.072,0.911c-0.023,0.19-0.051,0.399-0.146,0.558c-0.078,0.133-0.26,0.205-0.359,0.277
	c-0.173-0.023-0.314-0.066-0.452-0.058c-0.486,0.027-0.97,0.077-1.455,0.107c-0.084,0.005-0.171-0.044-0.256-0.066
	c-0.001,0-0.001,0-0.001,0c-0.002,0.002-0.004,0.004-0.005,0.006c0-0.002,0-0.004,0-0.005c-0.145,0.047-0.286,0.121-0.433,0.133
	c-1.347,0.103-2.692,0.193-4.04,0.289c-0.255,0.018-0.51,0.037-0.767,0.056l-2.533,0.255l0,0c-0.878,0.108-1.147,0.217-2.042,0.327
	c-0.016-0.084-0.037-0.197-0.062-0.334C1.245,13.572,1.236,13.779,1.244,14.065z M13.98,13.469c0.056-0.391,0.121-0.761,0.157-1.133
	c0.042-0.435,0.081-0.869,0.083-1.307c0.008-1.309-0.003-2.618-0.007-3.929c0-0.031,0.005-0.067-0.002-0.097
	c0.007-0.221,0.066-0.579,0.35-0.565c0.415,0.031,0.229-0.023,0.519,0.015c0.101,0.014,0.171,0.013,0.254,0.184
	c0.133,0.646,0.122,1.305,0.132,1.961c0.022,1.428-0.009,2.854-0.19,4.271c-0.051,0.393-0.195,0.523-0.594,0.547
	C14.454,13.43,14.224,13.453,13.98,13.469z"/>
</svg>
