<?xml version="1.0" encoding="utf-8"?>
<!-- Generator: Adobe Illustrator 16.0.4, SVG Export Plug-In . SVG Version: 6.00 Build 0)  -->
<!DOCTYPE svg PUBLIC "-//W3C//DTD SVG 1.1//EN" "http://www.w3.org/Graphics/SVG/1.1/DTD/svg11.dtd">
<svg version="1.1" id="Layer_1" xmlns="http://www.w3.org/2000/svg" xmlns:xlink="http://www.w3.org/1999/xlink" x="0px" y="0px"
	 width="202.5px" height="204px" viewBox="0 0 202.5 204" enable-background="new 0 0 202.5 204" xml:space="preserve">
<circle fill="#504D01" stroke="#000000" stroke-width="2" stroke-miterlimit="10" cx="101.312" cy="102.312" r="97.812"/>
<g>
	<path fill-rule="evenodd" clip-rule="evenodd" fill="#7C7600" d="M7.689,90.774c-0.027-0.084-0.047-0.177-0.075-0.26
		C7.544,90.666,7.585,90.741,7.689,90.774z"/>
	<path fill-rule="evenodd" clip-rule="evenodd" fill="#7C7600" d="M184.666,55.79c-20.237-18.112-31.289-35.483-57.706-45.469
		c-24.244-9.165-55.537-2.868-75.793,11.847C11.146,51.239-3.314,86.882,10.238,137.489c11.484,42.884,86.28,21.905,113.343,8.283
		c20.879-10.51,32.877-26.056,44.141-45.681C174.795,87.768,193.696,69.085,184.666,55.79
		C167.336,40.28,185.088,56.413,184.666,55.79z"/>
</g>
<path fill-rule="evenodd" clip-rule="evenodd" fill="#9AAB00" d="M129.363,13.581c0.233,0.279,2.854,3.543-0.013-0.013
	c-6.373-8.532-45.006-0.885-53.202,1.754c-18.346,5.909-25.244,12.183-39.036,21.781c0.118,1.513-4.203,5.903-5.815,6.28
	c-13.46,13.46-24.89,44.719-20.184,63.666c0.875-1.285,1.66-2.623,2.352-4.014c26.924,26.043,74.322,24.367,102.52,1.142
	c13.915-11.461,21.674-26.077,25.464-43.5c1.653-7.597-6.316-35.674-3.518-39.269c1.459-1.873,4.838,3.543,5.768-0.191
	C144.153,19.392,130.912,15.448,129.363,13.581z"/>
<path fill-rule="evenodd" clip-rule="evenodd" fill="#E9E3AA" d="M97.264,18.804C84.534,1.497,44.533,35.737,54.269,53.277
	c3.488,6.285,27.989,26.663,30.418,11.019C87.58,45.665,109.6,35.576,97.264,18.804C96.576,17.868,105.257,29.671,97.264,18.804z"/>
<path fill-rule="evenodd" clip-rule="evenodd" fill="#FCFCFC" d="M84.285,16.803c6.873,16.741-30.992,38.629-24.042,20.501
	C63.59,28.572,75.199,20.502,84.285,16.803C85.94,20.835,83.958,16.936,84.285,16.803z"/>
</svg>
